/* XPM */
static char *bar_array[] = {
/* columns rows colors chars-per-pixel */
"342 12 203 2 ",
"   c #000000",
".  c #0B0204",
"X  c #130406",
"o  c #170508",
"O  c #1B0509",
"+  c #21070B",
"@  c #26080D",
"#  c #2B090E",
"$  c #340A11",
"%  c #3B0C13",
"&  c #440E16",
"*  c #4B0F19",
"=  c #53101C",
"-  c #5C121E",
";  c #631421",
":  c #6C1624",
">  c #731726",
",  c #741827",
"<  c #761929",
"1  c #7C1A2A",
"2  c #BC1211",
"3  c #831B2D",
"4  c #8C1C2F",
"5  c #951E31",
"6  c #9C1F34",
"7  c #952221",
"8  c #9A2425",
"9  c #9F2628",
"0  c #9C2C2C",
"q  c #8E2032",
"w  c #982537",
"e  c #9A2639",
"r  c #9E2A3D",
"t  c #A1272A",
"y  c #A4292C",
"u  c #A82A2E",
"i  c #A42136",
"p  c #AC2C32",
"a  c #A22439",
"s  c #AA2238",
"d  c #B22F36",
"f  c #B2243B",
"g  c #B9273F",
"h  c #A43737",
"j  c #AC3036",
"k  c #AB3539",
"l  c #AD3C3E",
"z  c #B63039",
"x  c #BA323C",
"c  c #C11616",
"v  c #C31719",
"b  c #C6191D",
"n  c #C91A1E",
"m  c #DE1219",
"M  c #CC1D24",
"N  c #F01830",
"B  c #C9242D",
"V  c #D02027",
"C  c #D2212A",
"Z  c #CC2631",
"A  c #CE2835",
"S  c #D92632",
"D  c #D02A37",
"F  c #D22C3A",
"G  c #EA2335",
"H  c #E02B3A",
"J  c #EE283D",
"K  c #EC373B",
"L  c #AD2D42",
"P  c #B52D43",
"I  c #BA2A42",
"U  c #AD3246",
"Y  c #B43449",
"T  c #BB344B",
"R  c #C12740",
"E  c #C52E46",
"W  c #CC2B45",
"Q  c #D02D49",
"!  c #C43643",
"~  c #CA3947",
"^  c #C2344C",
"/  c #CD3A49",
"(  c #D63141",
")  c #D63847",
"_  c #D5334D",
"`  c #D33D4E",
"'  c #C43950",
"]  c #CD3B52",
"[  c #D23A53",
"{  c #DD3D56",
"}  c #E62F40",
"|  c #E62E4C",
" . c #F12D45",
".. c #E7304F",
"X. c #EE344A",
"o. c #F3344D",
"O. c #E73150",
"+. c #E93355",
"@. c #EB375B",
"#. c #EC3A5F",
"$. c #F53952",
"%. c #F83B55",
"&. c #FD3E5A",
"*. c #EE3C64",
"=. c #A84041",
"-. c #B04448",
";. c #B04B4D",
":. c #BB4054",
">. c #B44E52",
",. c #B75659",
"<. c #BB585D",
"1. c #BE6266",
"2. c #D8404F",
"3. c #C7475C",
"4. c #CA475C",
"5. c #C24B5E",
"6. c #DB4053",
"7. c #DB4A5A",
"8. c #E14357",
"9. c #E34459",
"0. c #E9475D",
"q. c #EA485F",
"w. c #C94E62",
"e. c #D54A61",
"r. c #DD5364",
"t. c #D5596D",
"y. c #DA5A6F",
"u. c #E14B64",
"i. c #EE4961",
"p. c #F14665",
"a. c #F44C66",
"s. c #F1426D",
"d. c #F3496A",
"f. c #FA4E6A",
"g. c #E05E6E",
"h. c #F44776",
"j. c #F64B7C",
"k. c #E35B71",
"l. c #F15171",
"z. c #F35975",
"x. c #C16369",
"c. c #C66E74",
"v. c #DE6377",
"b. c #C97077",
"n. c #E3647A",
"m. c #EF607E",
"M. c #E26878",
"N. c #F84F83",
"B. c #FB558C",
"V. c #FD5C94",
"C. c #CF7C85",
"Z. c #D17F87",
"A. c #EE6784",
"S. c #F96F84",
"D. c #E57586",
"F. c #EE718D",
"G. c #FE669D",
"H. c #EE7994",
"J. c #FE78A9",
"K. c #D78B95",
"L. c #D98D99",
"P. c #E98292",
"I. c #F7889A",
"U. c #FC8A9C",
"Y. c #DF9AA6",
"T. c #EF84A0",
"R. c #EC8FA2",
"E. c #F68FA1",
"W. c #FA8FA7",
"Q. c #E19CA9",
"!. c #F090AA",
"~. c #F99FAE",
"^. c #FD90B5",
"/. c #F19DB4",
"(. c #FB9FB4",
"). c #FF92BA",
"_. c #E6A9B9",
"`. c #E8ABBC",
"'. c #FCA4B2",
"]. c #FDB2BE",
"[. c #F3ACC4",
"{. c #FEA8C7",
"}. c #FFA9C9",
"|. c #EEBACD",
" X c #FFB6D0",
".X c #F7BAD2",
"XX c #FCC2CE",
"oX c #FEC2D2",
"OX c #F2C7DC",
"+X c #F9C5DD",
"@X c #F4CBDF",
"#X c #F9C9E3",
"$X c #FED8E1",
"%X c #F7D7ED",
"&X c #FBD3E9",
"*X c #FADBF2",
"=X c #FFE4EC",
"-X c #FBE6F6",
";X c #FDE7F8",
":X c #FDEAF8",
">X c #FFF1F7",
",X c #FEF5FB",
"<X c #FFFCFE",
/* pixels */
"K K K K K K K K K K K K K K K K K K K K K K K K K K K K K K K K K K K K K K K K K K K K K K K K K K K K K K K K K K K K K K K K K K K K K K K K K K K K K K K K K K K K K K K K K K K K K K K K K K K K K K K K K K K K K K K K K K K K K K K K K K K K K K K K K K K K K K K K K K K K K K K K K K K K K K K K K K K K K K K K K K K K K K K K K K K K K K K K K K K K K K K K K K K K K K K K K K K K K K K K K K K K K K K K K K K K K K K K K K K K K K K K K K K K K K K K K K K K K K K K K K K K K K K K K K K K K K K K K K K K K K K K K K K K K K K K K K K K K K K K K K K K K K K K K K K K K K K K K K K K K K K K K K K K K K K K K K K K K K K K K K K K K K K K K K K K K K K K K K K K K K ",
"                                                                                                                                                                                                                                                                                                                                                                                                                                                                                                                                                                                                                                                .   . . X o + @ $ & = ; > 3 5 i f R W Q _ [ [ ] ^ P a 4 > - ",
"                                                                                                                                                                                                                                                                                                                                                                                                                                                                                                                                                                                                                                              . . . . . X o + # $ & - ; 1 4 e f R Q _ 6.u.k.n.v.y.4.Y e 3 : ",
"| | | | N N N N N N | | | | | | | | | N N N N N N | | | | | | | | | N N N N N N | | | | | | | | | N N N N N N | | | | | | | | N N N N N N | | | | | | | | | N N N N N N | | | | | | | | | N N N N N N | | | | | | | | | N N N N N N | | | | | | | | | N N N N N N | | | | | | | | | N N N N N N | | | | | | | | | N N N N N N | | | | | | | | | N N N N N N | | | | | | | | | N N N N N N | | | | | | | | | N N N N N N | | | | | | | | | N N N N N N | | | | | | | | | N N N N N N | | | | | | | | | N N N N N N | | | | | | | | | N N N N N N | | | | | | | | | N N N N N N | | | | | | | | | N N N N N N | | | | | | | | | N N N N N N | | | | | ..O.+.+.+.@.#.*.s.s.h.j.N.N.B.V.G.J.).}. X X}.^.w.U q < ",
"B B B m m m m m m B B B B B B B B B m m m m m m B B B B B B B B B m m m m m m B B B B B B B B B m m m m m m B B B B B B B B m m m m m m B B B B B B B B B m m m m m m B B B B B B B B B m m m m m m B B B B B B B B B m m m m m m B B B B B B B B B m m m m m m B B B B B B B B B m m m m m m B B B B B B B B B m m m m m m B B B B B B B B B m m m m m m B B B B B B B B B m m m m m m B B B B B B B B B m m m m m m B B B B B B B B B m m m m m m B B B B B B B B B m m m m m m B B B B B B B B B m m m m m m B B B B B B B B B m m m m m m B B B B B B B B B m m m m m m B B B B B B B B B m m m m m m B B B B B B Z B B m m m m m m A A A D D ( ) 2.7.r.g.M.D.P.R./.]..X#X%X-X,X<X<X<X,X,X>X=XoXW.:.e < ",
"B B m m m m m m B B B B B B B B B m m m m m m B B B B B B B B B m m m m m m B B B B B B B B B m m m m m m B B B B B B B B m m m m m m B B B B B B B B B m m m m m m B B B B B B B B B m m m m m m B B B B B B B B B m m m m m m B B B B B B B B B m m m m m m B B B B B B B B B m m m m m m B B B B B B B B B m m m m m m B B B B B B B B B m m m m m m B B B B B B B B B m m m m m m B B B B B B B B B m m m m m m B B B B B B B B B m m m m m m B B B B B B B B B m m m m m m B B B B B B B B B m m m m m m B B B B B B B B B m m m m m m B B B B B B Z B B m m m m m m B B B B B B B B B m m m m m m B B B B Z A D F ( G G J  . .o.p.p.d.d.d.p.l.z.z.m.A.F.H.T.!./.[..X+X&X*X:X,X<X<X<X<X<X<X,X$X'.5.r 1 ",
"7 2 2 2 2 2 2 7 7 7 7 7 7 7 7 7 2 2 2 2 2 2 7 7 7 7 7 7 7 7 7 2 2 2 2 2 2 7 7 7 7 7 7 7 7 7 2 2 2 2 2 2 7 7 7 7 7 7 7 7 2 2 2 2 2 2 7 7 7 7 7 7 7 7 7 2 2 2 2 2 2 7 7 7 7 7 7 7 7 7 2 2 2 2 2 2 7 7 7 7 7 7 7 7 7 2 2 2 2 2 2 7 7 7 7 7 7 7 7 7 2 2 2 2 2 2 7 7 7 7 7 7 7 7 7 2 2 2 2 2 2 7 7 7 7 7 7 7 7 7 2 2 2 2 2 2 7 7 7 7 7 7 7 7 7 2 2 2 2 2 2 7 7 7 7 7 7 7 7 7 2 2 2 2 2 2 7 7 7 7 7 7 7 7 7 2 2 2 2 2 2 7 7 7 7 7 7 7 7 7 2 2 2 2 2 2 7 7 7 7 7 7 7 7 7 2 2 2 2 2 2 7 7 7 7 7 7 7 7 7 2 2 2 2 2 2 7 7 7 7 7 7 7 7 7 2 2 2 2 2 2 7 7 7 7 7 8 8 9 t b M M M M V z z p p p u y y y b b b n M M z x ~ ` 6.8.0.i.a.&.&.&.&.%.%.0.8.` / ! x j j k U -.>.<.1.b.Z.L.Y.`.|.@X*X-X,X<X<X<X<X<X<X,X$X~.5.r 1 ",
"2 2 2 2 2 2 7 7 7 7 7 7 7 7 7 2 2 2 2 2 2 7 7 7 7 7 7 7 7 7 2 2 2 2 2 2 7 7 7 7 7 7 7 7 7 2 2 2 2 2 2 7 7 7 7 7 7 7 7 2 2 2 2 2 2 7 7 7 7 7 7 7 7 7 2 2 2 2 2 2 7 7 7 7 7 7 7 7 7 2 2 2 2 2 2 7 7 7 7 7 7 7 7 7 2 2 2 2 2 2 7 7 7 7 7 7 7 7 7 2 2 2 2 2 2 7 7 7 7 7 7 7 7 7 2 2 2 2 2 2 7 7 7 7 7 7 7 7 7 2 2 2 2 2 2 7 7 7 7 7 7 7 7 7 2 2 2 2 2 2 7 7 7 7 7 7 7 7 7 2 2 2 2 2 2 7 7 7 7 7 7 7 7 7 2 2 2 2 2 2 7 7 7 7 7 7 7 7 7 2 2 2 2 2 2 7 7 7 7 7 7 7 7 7 2 2 2 2 2 2 7 7 7 7 7 7 7 7 7 2 2 2 2 2 2 7 7 7 7 7 7 7 7 7 2 2 2 2 2 2 7 7 7 7 7 7 7 7 7 2 2 2 c v b p z x ! / ` 6.7.9.X.o.o.$.$.%.f.f.f.f.f.a.a.i.0.X.} H S C M u t 8 7 7 7 7 7 9 0 h =.;.,.1.c.C.K.Y._.|.OX%X-X,X<X<X,X,X,X>X=XXXE.:.e < ",
"2 2 2 2 2 7 7 7 7 7 7 7 7 7 2 2 2 2 2 2 7 7 7 7 7 7 7 7 7 2 2 2 2 2 2 7 7 7 7 7 7 7 7 7 2 2 2 2 2 2 7 7 7 7 7 7 7 7 2 2 2 2 2 2 7 7 7 7 7 7 7 7 7 2 2 2 2 2 2 7 7 7 7 7 7 7 7 7 2 2 2 2 2 2 7 7 7 7 7 7 7 7 7 2 2 2 2 2 2 7 7 7 7 7 7 7 7 7 2 2 2 2 2 2 7 7 7 7 7 7 7 7 7 2 2 2 2 2 2 7 7 7 7 7 7 7 7 7 2 2 2 2 2 2 7 7 7 7 7 7 7 7 7 2 2 2 2 2 2 7 7 7 7 7 7 7 7 7 2 2 2 2 2 2 7 7 7 7 7 7 7 7 7 2 2 2 2 2 2 7 7 7 7 7 7 7 7 7 2 2 2 2 2 2 7 7 7 7 7 7 7 7 7 2 2 2 2 2 2 7 7 7 7 7 7 7 7 7 2 2 2 2 2 2 7 7 7 7 7 7 7 7 7 2 2 2 2 2 2 7 7 7 7 7 7 7 7 7 2 2 2 2 2 2 7 7 7 7 7 7 8 9 t b M M M C C x x x z d d p u t c c 2 2 2 2 7 7 7 7 7 7 7 7 7 7 7 8 9 t y u j d x ! ^ ` { 8.0.a.z.S.U.'.].].'.I.w.U q > ",
"                                                                                                                                                                                                                                                                                                                                                                                                                                                                                                                                                                                                                                              .   . . . X o O @ $ % * - : 1 4 6 s g E ] e.y.n.v.t.3.Y e 1 ; ",
"                                                                                                                                                                                                                                                                                                                                                                                                                                                                                                                                                                                                                                                .   . . . X O + # % & * ; > 1 4 w s f I ! ^ ' ^ T L e 3 : = ",
"K K K K K K K K K K K K K K K K K K K K K K K K K K K K K K K K K K K K K K K K K K K K K K K K K K K K K K K K K K K K K K K K K K K K K K K K K K K K K K K K K K K K K K K K K K K K K K K K K K K K K K K K K K K K K K K K K K K K K K K K K K K K K K K K K K K K K K K K K K K K K K K K K K K K K K K K K K K K K K K K K K K K K K K K K K K K K K K K K K K K K K K K K K K K K K K K K K K K K K K K K K K K K K K K K K K K K K K K K K K K K K K K K K K K K K K K K K K K K K K K K K K K K K K K K K K K K K K K K K K K K K K K K K K K K K K K K K K K K K K K K K K K K K K K K K K K K K K K K K K K K K K K K K K K K K K K K K K K K K K K K K K K K K K K K K K K K K K K K K K K K K "
};
